<?xml version="1.0" standalone="no"?><!DOCTYPE svg PUBLIC "-//W3C//DTD SVG 1.1//EN" "http://www.w3.org/Graphics/SVG/1.1/DTD/svg11.dtd"><svg t="1735357986837" class="icon" viewBox="0 0 1024 1024" version="1.1" xmlns="http://www.w3.org/2000/svg" p-id="8311" xmlns:xlink="http://www.w3.org/1999/xlink" width="20" height="20"><path d="M214.272 512c0-33.28 5.674667-65.152 15.744-95.018667L53.717333 285.184A503.893333 503.893333 0 0 0 0 512c0 81.536 19.285333 158.421333 53.589333 226.688l176.298667-132.010667A298.922667 298.922667 0 0 1 214.314667 512" fill="#FBBC05" p-id="8312"></path><path d="M523.946667 209.493333a307.2 307.2 0 0 1 192.768 67.413334L869.12 128a528.426667 528.426667 0 0 0-345.173333-128C316.842667 0 138.922667 115.84 53.76 285.269333l176.298667 131.84C270.677333 296.32 386.432 209.493333 523.946667 209.493333" fill="#EA4335" p-id="8313"></path><path d="M523.946667 814.506667c-137.514667 0-253.269333-86.741333-293.973334-207.445334l-176.213333 131.84C138.837333 908.16 316.8 1024 523.946667 1024c127.701333 0 249.685333-44.373333 341.248-127.616l-167.381334-126.592c-47.189333 29.141333-106.666667 44.8-173.952 44.8" fill="#34A853" p-id="8314"></path><path d="M1023.914667 512c0-30.208-4.778667-62.848-11.904-93.056H523.861333v197.76h280.96a230.4 230.4 0 0 1-106.922666 153.088l167.296 126.592C961.365333 809.045333 1024 678.912 1024 512" fill="#4285F4" p-id="8315"></path></svg>